{"title":"Grand Masti (2013) Hindi DVDScr XviD - Exclusive","uid":8920838,"size":713865609,"categoryP":"video","categoryS":"movies","magnet":"?xt=urn:btih:634978388fbb02ee1598d80e50ec551530246fb4&amp;dn=Grand+Masti+%282013%29+Hindi+DVDScr+XviD+-+Exclusive&amp;tr=udp%3A%2F%2Ftracker.openbittorrent.com%3A80&amp;tr=udp%3A%2F%2Fopen.demonii.com%3A1337&amp;tr=udp%3A%2F%2Ftracker.coppersurfer.tk%3A6969&amp;tr=udp%3A%2F%2Fexodus.desync.com%3A6969","seeders":5,"leechers":3,"uploader":"tykoon123","files":-1,"time":1379206415,"description":" &lt;a href=&quot;http://media.movietalkies.com/posters/bollywood/movies/2013/grandmasti/grandmasti-1b.jpg&quot; rel=&quot;nofollow&quot; target=&quot;_NEW&quot;&gt;http://media.movietalkies.com/posters/bollywood/movies/2013/grandmasti/grandmasti-1b.jpg&lt;/a&gt;\n\nInfo:\n\n\nFormat version : Version 2\nFile size : 681 MiB\nDuration : 2h 13mn\nOverall bit rate mode : Constant\nOverall bit rate : 713 Kbps\nEncoded date : UTC 2013-09-15 07:33:17\nWriting application : TMPGEnc Video Mastering Works 5 Version. 5.0.6.38\nWriting library : TMPGEnc Video Mastering Works 5 Version. 5.0.6.38\n\nVideo\nID : 2\nFormat : AVC\nFormat/Info : Advanced Video Codec\nFormat profile : &lt;a class=&quot;__cf_email__&quot; href=&quot;/cdn-cgi/l/email-protection&quot; data-cfemail=&quot;93dbfaf4fbd3dfa1bda2&quot;&gt;[email&amp;#160;protected]&lt;/a&gt;&lt;script cf-hash='f9e31' type=&quot;text/javascript&quot;&gt;\n/* &lt;![CDATA[ */!function(){try{var t=&quot;currentScript&quot;in document?document.currentScript:function(){for(var t=document.getElementsByTagName(&quot;script&quot;),e=t.length;e--;)if(t[e].getAttribute(&quot;cf-hash&quot;))return t[e]}();if(t&amp;&amp;t.previousSibling){var e,r,n,i,c=t.previousSibling,a=c.getAttribute(&quot;data-cfemail&quot;);if(a){for(e=&quot;&quot;,r=parseInt(a.substr(0,2),16),n=2;a.length-n;n+=2)i=parseInt(a.substr(n,2),16)^r,e+=String.fromCharCode(i);e=document.createTextNode(e),c.parentNode.replaceChild(e,c)}}}catch(u){}}();/* ]]&gt; */&lt;/script&gt;\nFormat settings, CABAC : Yes\nFormat settings, ReFrames : 3 frames\nCodec ID : V_MPEG4/ISO/AVC\nDuration : 2h 13mn\nBit rate mode : Constant\nBit rate : 315 Kbps\nNominal bit rate : 346 Kbps / 346 Kbps\nWidth : 572 pixels\nHeight : 236 pixels\nDisplay aspect ratio : 2.936\nOriginal display aspect ratio : 2.938\nFrame rate mode : Constant\nFrame rate : 23.976 fps\nStandard : NTSC\nColor space : YUV\nChroma subsampling : 4:2:0\nBit depth : 8 bits\nScan type : Progressive\nBits/(Pixel*Frame) : 0.097\nStream size : 301 MiB (44%)\nWriting library : x264 core 114\nDefault : Yes\nForced : No\nColor primaries : BT.601 NTSC\nTransfer characteristics : BT.601\nMatrix coefficients : BT.601\n\nAudio\nID : 1\nFormat : AC-3\nFormat/Info : Audio Coding 3\nMode extension : CM (complete main)\nFormat settings, Endianness : Big\nCodec ID : A_AC3\nDuration : 2h 13mn\nBit rate mode : Constant\nBit rate : 384 Kbps\nChannel(s) : 6 channels\nChannel positions : Front: L C R, Side: L R, LFE\nSampling rate : 48.0 KHz\nBit depth : 16 bits\nCompression mode : Lossy\nStream size : 366 MiB (54%)\nDefault : Yes\nForced : No\n\n\nScreens: &lt;a href=&quot;\nhttp://1337x.org/torrent/628088/Grand-Masti-2013-Hindi-DVDScr-XviD-Exclusive/&quot; rel=&quot;nofollow&quot; target=&quot;_NEW&quot;&gt;\nhttp://1337x.org/torrent/628088/Grand-Masti-2013-Hindi-DVDScr-XviD-Exclusive/&lt;/a&gt;\n\n\n\n\n\n\n\n\n\n\n\n\n\n\n\n\n\n\n\n\n\n","torrent":{"xt":"urn:btih:634978388fbb02ee1598d80e50ec551530246fb4","amp;dn":"Grand+Masti+%282013%29+Hindi+DVDScr+XviD+-+Exclusive","amp;tr":["udp%3A%2F%2Ftracker.openbittorrent.com%3A80","udp%3A%2F%2Fopen.demonii.com%3A1337","udp%3A%2F%2Ftracker.coppersurfer.tk%3A6969","udp%3A%2F%2Fexodus.desync.com%3A6969"],"infoHash":"634978388fbb02ee1598d80e50ec551530246fb4","infoHashBuffer":{"type":"Buffer","data":[99,73,120,56,143,187,2,238,21,152,216,14,80,236,85,21,48,36,111,180]},"announce":[],"urlList":[]}}